<?xml version="1.0" encoding="utf-8"?>
<!-- Generator: Adobe Illustrator 24.1.2, SVG Export Plug-In . SVG Version: 6.00 Build 0)  -->
<svg version="1.1" id="Capa_1" xmlns="http://www.w3.org/2000/svg" xmlns:xlink="http://www.w3.org/1999/xlink" x="0px" y="0px"
	 viewBox="0 0 96 96" style="enable-background:new 0 0 96 96;" xml:space="preserve">
<style type="text/css">
	.st0{fill:#FFFFFF;}
</style>
<g>
	<path class="st0" d="M92.3,46.6c-7.5-16.5-23.6-30.5-43.2-29.9c-18.4,0-36.5,12.4-43.3,29.8c-0.5,1.2-0.4,2.9,0.1,4.1
		c5,10.5,12.2,19.3,22.8,24.7c24,12.2,51.5,1.5,63.6-25.4C92.8,49,92.7,47.6,92.3,46.6z M48.5,68.1C37.9,67.8,29,58.7,29,48.3
		c0.1-10.7,9.5-19.8,20.2-19.7c10.8,0.2,20,9.5,19.7,20.1C68.7,59.5,59.2,68.5,48.5,68.1z"/>
	<path class="st0" d="M61,48.2c0.1,6.7-5,12-11.8,12.1c-6.8,0.1-12.1-5-12.2-11.6c-0.1-6.7,5.1-12,11.8-12.1
		C55.6,36.4,60.9,41.5,61,48.2z"/>
</g>
</svg>
